<svg xmlns="http://www.w3.org/2000/svg" viewBox="0 0 256 96" role="img" aria-label="Oppo logo">
  <title>Oppo</title>
  <!--
    Full, light-background optimized OPPO wordmark (vector).
    - Wide viewBox ensures the premium grid's uniform sizing rules (object-fit: contain + max-width)
      do not crop/truncate the mark.
    - Brand green approximation chosen for clear contrast on light surfaces.
  -->
  <g fill="#1BAA4A">
    <!-- O -->
    <path d="M49 20c-17.7 0-31 13.5-31 28s13.3 28 31 28 31-13.5 31-28-13.3-28-31-28zm0 11c10.9 0 19 8.1 19 17s-8.1 17-19 17-19-8.1-19-17 8.1-17 19-17z"/>
    <!-- P -->
    <path d="M96 20h35c14.1 0 25 9.2 25 22s-10.9 22-25 22h-23v12H96V20zm12 11v22h21c7.1 0 12-4.3 12-11s-4.9-11-12-11h-21z"/>
    <!-- P -->
    <path d="M164 20h35c14.1 0 25 9.2 25 22s-10.9 22-25 22h-23v12h-12V20zm12 11v22h21c7.1 0 12-4.3 12-11s-4.9-11-12-11h-21z"/>
  </g>
</svg>
