<svg xmlns="http://www.w3.org/2000/svg" viewBox="0 0 256 96" role="img" aria-label="Vivo logo">
  <title>vivo</title>
  <!--
    Full-color, light-background optimized Vivo-style wordmark.
    - Consistent wide viewBox to match other wordmarks in the premium grid.
    - Uses a vivo-blue approximation.
  -->
  <g fill="#2A6BD4">
    <!-- v -->
    <path d="M32 28h14l18 44 18-44h14L73 76H55L32 28z"/>
    <!-- i -->
    <path d="M116 28h12v48h-12V28z"/>
    <path d="M116 18h12v8h-12v-8z"/>
    <!-- v -->
    <path d="M142 28h14l16 40 16-40h14l-22 48h-16l-22-48z"/>
    <!-- o -->
    <path d="M224 28c-16 0-28 10.8-28 24s12 24 28 24 28-10.8 28-24-12-24-28-24zm0 11c8.9 0 16 5.9 16 13s-7.1 13-16 13-16-5.9-16-13 7.1-13 16-13z"/>
  </g>
</svg>
